<svg width="481" height="440" viewBox="0 0 481 440" fill="none" xmlns="http://www.w3.org/2000/svg">
<path d="M480.799 214.135C480.799 182.284 440.912 152.099 379.759 133.381C393.871 71.0516 387.599 21.4625 359.962 5.58612C353.592 1.86204 346.144 0.0980007 338.01 0.0980007V21.9525C342.518 21.9525 346.144 22.8345 349.182 24.5006C362.51 32.1447 368.292 61.2514 363.784 98.6882C362.706 107.9 360.942 117.603 358.786 127.501C339.578 122.797 318.605 119.171 296.555 116.819C283.324 98.6882 269.604 82.2239 255.786 67.8175C287.735 38.1229 317.723 21.8545 338.108 21.8545V0C311.157 0 275.876 19.2084 240.203 52.5292C204.531 19.4044 169.25 0.39201 142.299 0.39201V22.2465C162.586 22.2465 192.672 38.4169 224.621 67.9155C210.901 82.3219 197.181 98.6882 184.146 116.819C161.998 119.171 141.025 122.797 121.817 127.599C119.563 117.799 117.897 108.292 116.721 99.1782C112.115 61.7414 117.799 32.6347 131.029 24.8926C133.969 23.1285 137.791 22.3445 142.299 22.3445V0.490011C134.067 0.490011 126.619 2.25405 120.151 5.97813C92.6121 21.8545 86.438 71.3456 100.648 133.479C39.6909 152.295 0 182.382 0 214.135C0 245.986 39.8869 276.17 101.04 294.889C86.928 357.218 93.2001 406.807 120.837 422.684C127.207 426.408 134.655 428.172 142.887 428.172C169.838 428.172 205.119 408.963 240.792 375.642C276.464 408.767 311.745 427.78 338.696 427.78C346.928 427.78 354.376 426.016 360.844 422.292C388.383 406.415 394.557 356.924 380.347 294.791C441.108 276.072 480.799 245.888 480.799 214.135V214.135ZM353.2 148.767C349.574 161.41 345.066 174.444 339.97 187.478C335.952 179.638 331.738 171.798 327.131 163.958C322.623 156.118 317.821 148.473 313.019 141.025C326.936 143.083 340.362 145.631 353.2 148.767ZM308.315 253.14C300.671 266.37 292.831 278.914 284.697 290.577C270.094 291.851 255.296 292.537 240.4 292.537C225.601 292.537 210.803 291.851 196.298 290.675C188.164 279.012 180.226 266.566 172.582 253.434C165.134 240.595 158.372 227.561 152.197 214.429C158.274 201.297 165.134 188.164 172.484 175.326C180.128 162.096 187.968 149.551 196.102 137.889C210.705 136.615 225.503 135.929 240.4 135.929C255.198 135.929 269.996 136.615 284.5 137.791C292.635 149.453 300.573 161.9 308.217 175.032C315.665 187.87 322.427 200.905 328.602 214.037C322.427 227.169 315.665 240.301 308.315 253.14ZM339.97 240.399C345.262 253.532 349.77 266.664 353.494 279.404C340.656 282.54 327.131 285.186 313.117 287.245C317.919 279.698 322.721 271.956 327.23 264.018C331.738 256.178 335.952 248.24 339.97 240.399ZM240.596 344.968C231.481 335.56 222.367 325.073 213.351 313.607C222.171 313.999 231.187 314.293 240.301 314.293C249.514 314.293 258.628 314.097 267.546 313.607C258.726 325.073 249.612 335.56 240.596 344.968ZM167.682 287.245C153.766 285.186 140.339 282.638 127.501 279.502C131.127 266.86 135.635 253.826 140.731 240.791C144.749 248.632 148.963 256.472 153.57 264.312C158.176 272.152 162.88 279.796 167.682 287.245ZM240.106 83.3019C249.22 92.7101 258.334 103.196 267.35 114.663C258.53 114.271 249.514 113.977 240.4 113.977C231.187 113.977 222.073 114.173 213.155 114.663C221.975 103.196 231.089 92.7101 240.106 83.3019ZM167.584 141.025C162.782 148.571 157.98 156.314 153.472 164.252C148.963 172.092 144.749 179.932 140.731 187.772C135.439 174.64 130.931 161.508 127.207 148.767C140.045 145.729 153.57 143.083 167.584 141.025V141.025ZM78.8918 263.724C44.199 248.926 21.7565 229.521 21.7565 214.135C21.7565 198.749 44.199 179.246 78.8918 164.546C87.32 160.92 96.5322 157.686 106.038 154.648C111.625 173.856 118.975 193.848 128.089 214.331C119.073 234.715 111.821 254.61 106.332 273.72C96.6302 270.682 87.418 267.35 78.8918 263.724ZM131.617 403.769C118.289 396.125 112.507 367.018 117.015 329.581C118.093 320.369 119.857 310.667 122.013 300.769C141.221 305.473 162.194 309.099 184.244 311.451C197.475 329.581 211.195 346.046 225.013 360.452C193.064 390.147 163.076 406.415 142.691 406.415C138.281 406.317 134.557 405.435 131.617 403.769V403.769ZM364.078 329.091C368.684 366.528 363 395.635 349.77 403.377C346.83 405.141 343.008 405.925 338.5 405.925C318.213 405.925 288.127 389.755 256.178 360.256C269.898 345.85 283.619 329.483 296.653 311.353C318.801 309.001 339.774 305.375 358.982 300.573C361.236 310.471 363 319.977 364.078 329.091V329.091ZM401.809 263.724C393.381 267.35 384.169 270.584 374.663 273.622C369.076 254.414 361.726 234.421 352.612 213.939C361.628 193.554 368.88 173.66 374.369 154.549C384.071 157.588 393.283 160.92 401.907 164.546C436.6 179.344 459.042 198.749 459.042 214.135C458.944 229.521 436.502 249.024 401.809 263.724V263.724Z" fill="#61DAFB"/>
<path d="M240.302 258.922C265.037 258.922 285.089 238.87 285.089 214.135C285.089 189.4 265.037 169.348 240.302 169.348C215.566 169.348 195.515 189.4 195.515 214.135C195.515 238.87 215.566 258.922 240.302 258.922Z" fill="#61DAFB"/>
<g opacity="0.9">
<path d="M95.1118 163.502L95.1614 163.588L95.1118 163.502Z" fill="#FFEB99"/>
<path d="M233.028 191.344C233.028 182.544 235.738 174.367 240.361 167.596L240.361 134.971C196.008 134.972 152.371 146.606 114.165 168.616L102.084 175.575L240.364 415L240.361 215.093C235.738 208.322 233.028 200.144 233.028 191.344ZM173.071 164.175H200.986V192.09H173.071V164.175ZM192.815 318.691H184.757L152.213 262.334L156.251 255.351C163.78 242.336 177.79 234.251 192.815 234.251C216.095 234.251 235.035 253.19 235.035 276.471C235.035 299.751 216.095 318.691 192.815 318.691Z" fill="#FFEB99"/>
<path d="M385.554 163.525L383.105 167.766L385.554 163.525Z" fill="#FFDA44"/>
<path d="M240.365 134.971C240.361 134.971 240.361 167.596 240.361 167.596C247.97 156.454 260.768 149.124 275.248 149.124C298.528 149.124 317.468 168.064 317.468 191.344C317.468 214.624 298.528 233.564 275.248 233.564C260.768 233.564 247.971 226.234 240.362 215.093L240.365 415L378.576 175.613L366.488 168.634C328.344 146.612 284.731 134.971 240.365 134.971ZM283.232 294.26H255.317V266.345H283.232V294.26Z" fill="#FFDA44"/>
<path d="M240.361 134.971C240.365 134.971 240.65 65 240.65 65C184.108 65 128.324 79.9199 79.3287 108.145L67 115.308L74.3033 127.38L95.1125 163.502L95.1621 163.588L102.072 175.583C102.086 175.576 114.167 168.616 114.167 168.616C152.371 146.606 196.009 134.972 240.361 134.971Z" fill="#FFB655"/>
<path d="M413.469 115.175L401.382 108.196C352.435 79.9373 296.855 65 240.65 65L240.365 134.971C284.731 134.971 328.344 146.612 366.488 168.635L378.576 175.613L383.105 167.767L385.554 163.526L413.469 115.175Z" fill="#FFA733"/>
<path d="M156.252 255.351L152.213 262.334L184.758 318.691H192.816V234.251C177.791 234.251 163.781 242.336 156.252 255.351Z" fill="#FF0C38"/>
<path d="M192.815 234.251V318.691C216.095 318.691 235.035 299.751 235.035 276.471C235.035 253.19 216.095 234.251 192.815 234.251Z" fill="#D80027"/>
<path d="M240.362 215.093C247.971 226.234 260.768 233.564 275.248 233.564V149.124C260.768 149.124 247.97 156.455 240.361 167.596C235.738 174.367 233.028 182.544 233.028 191.344C233.028 200.144 235.738 208.322 240.362 215.093Z" fill="#FF0C38"/>
<path d="M317.468 191.344C317.468 168.064 298.528 149.124 275.248 149.124V233.564C298.528 233.564 317.468 214.625 317.468 191.344Z" fill="#D80027"/>
<path d="M200.987 164.175H173.072V192.09H200.987V164.175Z" fill="#91DC5A"/>
<path d="M283.232 266.345H255.317V294.26H283.232V266.345Z" fill="#91DC5A"/>
</g>
</svg>
